<svg xmlns="http://www.w3.org/2000/svg" xmlns:xlink="http://www.w3.org/1999/xlink" width="90" zoomAndPan="magnify" viewBox="0 0 67.5 30.000001" height="40" preserveAspectRatio="xMidYMid meet" version="1.0"><defs><g/><clipPath id="id1"><path d="M 1.679688 5.117188 L 6.066406 5.117188 L 6.066406 24.128906 L 1.679688 24.128906 Z M 1.679688 5.117188 " clip-rule="nonzero"/></clipPath><clipPath id="id2"><path d="M 59.339844 5.117188 L 63.726562 5.117188 L 63.726562 24.128906 L 59.339844 24.128906 Z M 59.339844 5.117188 " clip-rule="nonzero"/></clipPath></defs><g clip-path="url(#id1)"><path fill="#ffffff" d="M 3.613281 7.359375 C 3.613281 6.671875 4.195312 6.117188 4.914062 6.117188 L 5.546875 6.117188 C 5.835938 6.117188 6.066406 5.894531 6.066406 5.621094 C 6.066406 5.347656 5.835938 5.125 5.546875 5.125 L 5.363281 5.125 C 4.066406 5.125 3.019531 6.125 3.019531 7.359375 L 3.019531 11.871094 C 3.019531 12.773438 2.71875 13.636719 2.050781 14.273438 L 1.679688 14.625 L 2.050781 14.976562 C 2.71875 15.613281 3.019531 16.476562 3.019531 17.378906 L 3.019531 21.890625 C 3.019531 23.125 4.066406 24.125 5.363281 24.125 L 5.546875 24.125 C 5.835938 24.125 6.066406 23.902344 6.066406 23.628906 C 6.066406 23.355469 5.835938 23.132812 5.546875 23.132812 L 4.914062 23.132812 C 4.195312 23.132812 3.613281 22.578125 3.613281 21.890625 L 3.613281 17.378906 C 3.613281 16.363281 3.253906 15.402344 2.59375 14.625 C 3.253906 13.847656 3.613281 12.886719 3.613281 11.871094 L 3.613281 7.359375 " fill-opacity="1" fill-rule="nonzero"/></g><g clip-path="url(#id2)"><path fill="#ffffff" d="M 61.792969 21.890625 C 61.792969 22.574219 61.210938 23.128906 60.492188 23.128906 L 59.859375 23.128906 C 59.574219 23.128906 59.339844 23.351562 59.339844 23.625 C 59.339844 23.898438 59.574219 24.121094 59.859375 24.121094 L 60.046875 24.121094 C 61.339844 24.121094 62.390625 23.121094 62.390625 21.890625 L 62.390625 17.375 C 62.390625 16.472656 62.691406 15.609375 63.359375 14.972656 L 63.726562 14.621094 L 63.359375 14.269531 C 62.691406 13.632812 62.390625 12.769531 62.390625 11.871094 L 62.390625 7.355469 C 62.390625 6.121094 61.339844 5.121094 60.046875 5.121094 L 59.859375 5.121094 C 59.574219 5.121094 59.339844 5.34375 59.339844 5.617188 C 59.339844 5.890625 59.574219 6.113281 59.859375 6.113281 L 60.492188 6.113281 C 61.210938 6.113281 61.792969 6.667969 61.792969 7.355469 L 61.792969 11.871094 C 61.792969 12.882812 62.152344 13.84375 62.8125 14.621094 C 62.152344 15.398438 61.792969 16.359375 61.792969 17.375 L 61.792969 21.890625 " fill-opacity="1" fill-rule="nonzero"/></g><g fill="#ffffff" fill-opacity="1"><g transform="translate(5.107216, 19.106645)"><g><path d="M 5.3125 -1.433594 L 6.441406 -1.433594 L 6.441406 -5.871094 C 6.441406 -5.898438 6.410156 -5.9375 6.359375 -5.9375 L 5.378906 -5.9375 C 5.351562 -5.9375 5.3125 -5.914062 5.296875 -5.890625 L 3.273438 -1.542969 L 1.144531 -5.890625 C 1.136719 -5.914062 1.089844 -5.9375 1.070312 -5.9375 L 0.0742188 -5.9375 C 0.0234375 -5.9375 0 -5.898438 0 -5.871094 L 0 -0.0664062 C 0 -0.0351562 0.0234375 0 0.0742188 0 L 1.054688 0 C 1.097656 0 1.136719 -0.0351562 1.136719 -0.0664062 L 1.136719 -3.398438 L 2.746094 -0.28125 C 2.753906 -0.257812 2.796875 -0.238281 2.820312 -0.238281 L 3.730469 -0.238281 C 3.753906 -0.238281 3.792969 -0.257812 3.800781 -0.28125 L 5.3125 -3.316406 Z M 5.3125 -1.433594 "/></g></g></g><g fill="#ffffff" fill-opacity="1"><g transform="translate(11.874403, 19.106645)"><g><path d="M 4.660156 -0.0898438 L 2.402344 -5.890625 C 2.382812 -5.949219 2.277344 -5.949219 2.253906 -5.890625 L 0.0078125 -0.0898438 C -0.015625 -0.0429688 0.015625 0 0.0820312 0 L 1.097656 0 C 1.128906 0 1.164062 -0.015625 1.171875 -0.0429688 L 2.328125 -3.355469 L 3.503906 -0.0429688 C 3.507812 -0.015625 3.546875 0 3.570312 0 L 4.59375 0 C 4.644531 0 4.683594 -0.0429688 4.660156 -0.0898438 Z M 4.660156 -0.0898438 "/></g></g></g><g fill="#ffffff" fill-opacity="1"><g transform="translate(16.771711, 19.106645)"><g><path d="M 3.390625 -1.089844 C 2.671875 -1.0625 1.144531 -1.136719 1.144531 -2.96875 C 1.144531 -4.378906 2.101562 -4.917969 3.390625 -4.851562 L 3.390625 -3.539062 L 4.527344 -3.539062 L 4.527344 -5.871094 C 4.527344 -5.898438 4.496094 -5.9375 4.445312 -5.9375 L 3.480469 -5.9375 C 2.027344 -5.9375 0 -5.601562 0 -2.96875 C 0 -0.429688 2.003906 0 3.480469 0 L 4.445312 0 C 4.496094 0 4.527344 -0.0351562 4.527344 -0.0664062 L 4.527344 -1.089844 Z M 3.390625 -1.089844 "/></g></g></g><g fill="#ffffff" fill-opacity="1"><g transform="translate(21.52803, 19.106645)"><g><path d="M 4.734375 -0.109375 L 2.351562 -2.917969 L 4.710938 -5.824219 C 4.765625 -5.875 4.726562 -5.9375 4.644531 -5.9375 L 3.433594 -5.9375 C 3.421875 -5.9375 3.375 -5.921875 3.367188 -5.914062 L 1.136719 -3.167969 L 1.136719 -5.871094 C 1.136719 -5.898438 1.105469 -5.9375 1.0625 -5.9375 L 0.0820312 -5.9375 C 0.0351562 -5.9375 0 -5.898438 0 -5.871094 L 0 -0.363281 C 0 -0.363281 1.445312 -2.003906 1.59375 -2.160156 L 3.324219 -0.0234375 C 3.332031 -0.015625 3.375 0 3.390625 0 L 4.667969 0 C 4.742188 0 4.777344 -0.0507812 4.734375 -0.109375 Z M 4.734375 -0.109375 "/></g></g></g><g fill="#ffffff" fill-opacity="1"><g transform="translate(26.521795, 19.106645)"><g/></g></g><g fill="#ffffff" fill-opacity="1"><g transform="translate(28.376831, 19.106645)"><g><path d="M 4.527344 -4.84375 L 4.527344 -5.871094 C 4.527344 -5.898438 4.496094 -5.9375 4.445312 -5.9375 L 3.480469 -5.9375 C 2.003906 -5.9375 0 -5.503906 0 -2.96875 C 0 -0.332031 2.027344 0 3.480469 0 L 4.445312 0 C 4.496094 0 4.527344 -0.0351562 4.527344 -0.0664062 L 4.527344 -3.703125 L 2.25 -3.703125 L 2.25 -2.566406 L 3.390625 -2.566406 L 3.390625 -1.082031 C 2.101562 -1.015625 1.144531 -1.558594 1.144531 -2.96875 C 1.144531 -4.800781 2.671875 -4.875 3.390625 -4.84375 Z M 4.527344 -4.84375 "/></g></g></g><g fill="#ffffff" fill-opacity="1"><g transform="translate(33.13315, 19.106645)"><g><path d="M 4.050781 -0.0976562 C 3.679688 -0.921875 3.28125 -1.734375 2.910156 -2.574219 C 3.503906 -2.789062 4 -3.265625 4 -4.171875 C 4 -5.921875 2.328125 -5.9375 1.996094 -5.9375 L 0.0742188 -5.9375 C 0.0351562 -5.9375 0 -5.898438 0 -5.871094 L 0 -4.859375 L 1.996094 -4.859375 C 2.175781 -4.859375 2.871094 -4.824219 2.871094 -4.171875 C 2.871094 -3.515625 2.242188 -3.488281 1.996094 -3.488281 L 0 -3.488281 L 0 -0.0664062 C 0 -0.0351562 0.0351562 0 0.0742188 0 L 1.046875 0 C 1.089844 0 1.128906 -0.0351562 1.128906 -0.0664062 L 1.128906 -2.398438 L 1.765625 -2.398438 L 2.847656 -0.0429688 C 2.855469 -0.0234375 2.902344 0 2.921875 0 L 3.984375 0 C 4.042969 0 4.074219 -0.0429688 4.050781 -0.0976562 Z M 4.050781 -0.0976562 "/></g></g></g><g fill="#ffffff" fill-opacity="1"><g transform="translate(37.399747, 19.106645)"><g><path d="M 2.417969 -1.015625 L 1.824219 -1.015625 L 1.824219 -5.9375 L 0.691406 -5.9375 L 0.691406 -1.015625 L 0.0820312 -1.015625 C 0.0351562 -1.015625 0 -0.988281 0 -0.949219 L 0 -0.0664062 C 0 -0.0351562 0.0351562 0 0.0820312 0 L 2.417969 0 C 2.472656 0 2.5 -0.0351562 2.5 -0.0664062 L 2.5 -0.949219 C 2.5 -0.988281 2.472656 -1.015625 2.417969 -1.015625 Z M 2.417969 -1.015625 "/></g></g></g><g fill="#ffffff" fill-opacity="1"><g transform="translate(40.026485, 19.106645)"><g><path d="M 2.722656 -3.292969 C 2.300781 -3.496094 1.882812 -3.496094 1.847656 -3.496094 C 1.46875 -3.496094 1.105469 -3.71875 1.105469 -4.148438 C 1.105469 -4.621094 1.441406 -4.867188 1.847656 -4.867188 C 2.234375 -4.867188 2.558594 -4.667969 2.574219 -4.246094 C 2.574219 -4.222656 2.613281 -4.183594 2.65625 -4.183594 L 3.582031 -4.183594 C 3.636719 -4.183594 3.671875 -4.222656 3.664062 -4.246094 C 3.652344 -5.253906 2.863281 -5.9375 1.847656 -5.9375 C 0.898438 -5.9375 0 -5.261719 0 -4.148438 C 0 -3.457031 0.347656 -2.929688 0.964844 -2.648438 C 1.394531 -2.449219 1.796875 -2.449219 1.847656 -2.449219 C 2.179688 -2.433594 2.589844 -2.167969 2.589844 -1.730469 C 2.589844 -1.335938 2.242188 -1.070312 1.847656 -1.070312 C 1.847656 -1.070312 1.847656 -1.070312 1.839844 -1.070312 L 1.839844 0 C 1.847656 0 1.847656 0 1.847656 0 C 2.796875 0 3.6875 -0.617188 3.6875 -1.730469 C 3.6875 -2.425781 3.347656 -3.003906 2.722656 -3.292969 Z M 2.722656 -3.292969 "/></g></g></g><g fill="#ffffff" fill-opacity="1"><g transform="translate(43.899806, 19.106645)"><g><path d="M 2.722656 -3.292969 C 2.300781 -3.496094 1.882812 -3.496094 1.847656 -3.496094 C 1.46875 -3.496094 1.105469 -3.71875 1.105469 -4.148438 C 1.105469 -4.621094 1.441406 -4.867188 1.847656 -4.867188 C 2.234375 -4.867188 2.558594 -4.667969 2.574219 -4.246094 C 2.574219 -4.222656 2.613281 -4.183594 2.65625 -4.183594 L 3.582031 -4.183594 C 3.636719 -4.183594 3.671875 -4.222656 3.664062 -4.246094 C 3.652344 -5.253906 2.863281 -5.9375 1.847656 -5.9375 C 0.898438 -5.9375 0 -5.261719 0 -4.148438 C 0 -3.457031 0.347656 -2.929688 0.964844 -2.648438 C 1.394531 -2.449219 1.796875 -2.449219 1.847656 -2.449219 C 2.179688 -2.433594 2.589844 -2.167969 2.589844 -1.730469 C 2.589844 -1.335938 2.242188 -1.070312 1.847656 -1.070312 C 1.847656 -1.070312 1.847656 -1.070312 1.839844 -1.070312 L 1.839844 0 C 1.847656 0 1.847656 0 1.847656 0 C 2.796875 0 3.6875 -0.617188 3.6875 -1.730469 C 3.6875 -2.425781 3.347656 -3.003906 2.722656 -3.292969 Z M 2.722656 -3.292969 "/></g></g></g><g fill="#ffffff" fill-opacity="1"><g transform="translate(47.773126, 19.106645)"><g><path d="M 3.414062 -2.953125 C 3.414062 -3.265625 3.167969 -3.515625 2.855469 -3.515625 C 2.546875 -3.515625 2.300781 -3.265625 2.300781 -2.953125 C 2.300781 -2.648438 2.546875 -2.398438 2.855469 -2.398438 C 3.167969 -2.398438 3.414062 -2.648438 3.414062 -2.953125 Z M 5.714844 -2.976562 C 5.714844 -4.453125 4.757812 -5.9375 2.863281 -5.9375 C 0.941406 -5.9375 0 -4.453125 0 -2.976562 C 0 -1.492188 0.941406 0 2.863281 0 C 4.757812 0 5.714844 -1.492188 5.714844 -2.976562 Z M 4.601562 -2.953125 C 4.601562 -1.996094 4.015625 -1.039062 2.863281 -1.039062 C 1.699219 -1.039062 1.121094 -1.996094 1.121094 -2.953125 C 1.121094 -3.925781 1.699219 -4.890625 2.863281 -4.890625 C 4.015625 -4.890625 4.601562 -3.925781 4.601562 -2.953125 Z M 4.601562 -2.953125 "/></g></g></g><g fill="#ffffff" fill-opacity="1"><g transform="translate(53.768621, 19.106645)"><g><path d="M 5.3125 -1.433594 L 6.441406 -1.433594 L 6.441406 -5.871094 C 6.441406 -5.898438 6.410156 -5.9375 6.359375 -5.9375 L 5.378906 -5.9375 C 5.351562 -5.9375 5.3125 -5.914062 5.296875 -5.890625 L 3.273438 -1.542969 L 1.144531 -5.890625 C 1.136719 -5.914062 1.089844 -5.9375 1.070312 -5.9375 L 0.0742188 -5.9375 C 0.0234375 -5.9375 0 -5.898438 0 -5.871094 L 0 -0.0664062 C 0 -0.0351562 0.0234375 0 0.0742188 0 L 1.054688 0 C 1.097656 0 1.136719 -0.0351562 1.136719 -0.0664062 L 1.136719 -3.398438 L 2.746094 -0.28125 C 2.753906 -0.257812 2.796875 -0.238281 2.820312 -0.238281 L 3.730469 -0.238281 C 3.753906 -0.238281 3.792969 -0.257812 3.800781 -0.28125 L 5.3125 -3.316406 Z M 5.3125 -1.433594 "/></g></g></g><g fill="#ffffff" fill-opacity="1"><g transform="translate(60.526156, 19.106645)"><g/></g></g></svg>